<svg _ngcontent-app-root-c160="" width="174" height="55" viewBox="0 0 174 55" fill="none" xmlns="http://www.w3.org/2000/svg"><circle _ngcontent-app-root-c160="" cx="27.163" cy="27.532" r="26.729" fill="#fff"></circle><path _ngcontent-app-root-c160="" d="M17.382 42.48h19.562v-5.295H23.447v-7.176H33.47v-5.04H17.382v17.512zM36.859 12.583H17.382v5.296H36.86v-5.296z" fill="#000"></path><path _ngcontent-app-root-c160="" d="M65.554 14.065h8.347v-1.947H67.78V8.482h5.23V6.627h-5.23V3.03h6.102V1.08h-8.328v12.984zM76.495 14.065h2.226V5.218l5.564 8.847h2.04V1.081H84.1V9.93l-5.565-8.848h-2.04v12.984zM92.13 14.065h2.227V3.03h3.765V1.08h-9.757V3.03h3.766v11.036zM100.17 14.065h8.347v-1.947h-6.121V8.482h5.231V6.627h-5.231V3.03h6.102V1.08h-8.328v12.984zM111.111 14.065h2.226v-4.99h2.559l2.671 4.99h2.189v-.742l-2.43-4.507c1.54-.65 2.282-2.059 2.282-3.747 0-2.485-1.354-3.988-3.914-3.988h-5.583v12.984zm2.226-6.881V3.029h2.949c1.298 0 2.059.63 2.059 2.077s-.761 2.078-2.059 2.078h-2.949zM123.356 14.065h2.226V9.057h3.394c2.3 0 3.654-1.558 3.654-3.988 0-2.43-1.354-3.988-3.654-3.988h-5.62v12.984zm2.226-6.955V3.029h3.005c.964 0 1.78.668 1.78 2.04 0 1.373-.816 2.04-1.78 2.04h-3.005zM135.13 14.065h2.226v-4.99h2.56l2.671 4.99h2.188v-.742l-2.43-4.507c1.54-.65 2.282-2.059 2.282-3.747 0-2.485-1.354-3.988-3.914-3.988h-5.583v12.984zm2.226-6.881V3.029h2.949c1.299 0 2.059.63 2.059 2.077s-.76 2.078-2.059 2.078h-2.949zM147.375 14.065h2.226V1.081h-2.226v12.984zM157.147 14.344c3.264 0 4.915-1.651 4.915-3.84 0-2.281-2.003-3.098-4.303-3.914l-.26-.092c-1.892-.668-2.801-.984-2.801-2.078 0-.909.928-1.577 2.412-1.577 1.354 0 2.615.594 2.615 2.338h2.226c0-3.135-2.078-4.378-4.823-4.378-2.912 0-4.674 1.521-4.674 3.784 0 2.115 1.502 2.875 3.951 3.803l.296.11c1.985.743 3.005 1.095 3.005 2.115 0 .965-.834 1.688-2.43 1.688-1.279 0-2.949-.52-2.949-2.448h-2.226c0 3.042 2.338 4.489 5.046 4.489zM164.837 14.065h8.347v-1.947h-6.121V8.482h5.231V6.627h-5.231V3.03h6.102V1.08h-8.328v12.984zM64.219 34.47h1.853l1.051-2.889h4.407l1.035 2.888h1.97v-.668l-4.173-11.018h-1.97l-4.173 11.018v.668zm3.505-4.558l1.62-4.458 1.585 4.458h-3.205zM76.375 34.47h7.596v-1.754h-5.593v-9.933h-2.003V34.47zM89.756 34.72c1.235 0 2.237-.451 2.972-1.353l.6 1.102h1.086v-6.177h-4.308v1.67h2.304v1.502c-.5.902-1.452 1.42-2.537 1.42-1.57 0-2.47-.869-2.47-2.321v-3.957c0-1.385.984-2.237 2.537-2.237 1.552 0 2.47.852 2.47 2.137v.067h2.004v-.067c0-2.738-2.12-3.973-4.39-3.973-2.906 0-4.625 1.552-4.625 4.207v3.823c0 2.637 1.67 4.156 4.357 4.156zM101.516 32.883c-1.737 0-2.588-1.018-2.588-2.27V26.64c0-1.252.852-2.27 2.588-2.27 1.736 0 2.587 1.018 2.587 2.27v3.973c0 1.252-.851 2.27-2.587 2.27zm0 1.836c2.804 0 4.59-1.552 4.59-4.206V26.74c0-2.654-1.786-4.207-4.59-4.207-2.805 0-4.591 1.552-4.591 4.207v3.773c0 2.654 1.786 4.206 4.591 4.206zM108.785 34.47h2.003v-4.492h2.304l2.404 4.491h1.969v-.668l-2.186-4.056c1.385-.585 2.053-1.853 2.053-3.373 0-2.236-1.219-3.589-3.522-3.589h-5.025V34.47zm2.003-6.194v-3.74h2.654c1.169 0 1.853.568 1.853 1.87s-.684 1.87-1.853 1.87h-2.654zM119.805 34.47h2.003V22.782h-2.003V34.47zM127.03 34.47h2.004v-9.934h3.389v-1.753h-8.781v1.753h3.388v9.933zM134.266 34.47h2.003v-4.976h4.841v4.975h2.003V22.783h-2.003v4.958h-4.841v-4.958h-2.003V34.47zM152.027 30.696l2.671-4.357v8.13h1.937V22.783h-1.87l-3.355 5.46-3.356-5.46h-1.936V34.47h1.936v-8.13l2.688 4.357h1.285zM159.633 34.47h2.003V22.782h-2.003V34.47zM168.844 34.72c2.287 0 4.307-1.22 4.307-4.04v-.167h-2.003v.167c0 1.569-1.302 2.203-2.32 2.203-1.72 0-2.521-.851-2.521-2.237v-4.04c0-1.385.801-2.237 2.521-2.237 1.018 0 2.32.635 2.32 2.204v.167h2.003v-.167c0-2.821-2.02-4.04-4.307-4.04-2.904 0-4.54 1.552-4.54 4.207v3.773c0 2.654 1.636 4.206 4.54 4.206zM68.883 54.182c2.775 0 4.178-1.403 4.178-3.264 0-1.94-1.703-2.633-3.658-3.327l-.22-.078c-1.61-.568-2.382-.836-2.382-1.766 0-.773.789-1.34 2.05-1.34 1.151 0 2.223.504 2.223 1.986h1.892c0-2.664-1.766-3.72-4.1-3.72-2.475 0-3.972 1.292-3.972 3.216 0 1.797 1.277 2.443 3.358 3.232l.252.094c1.687.631 2.554.93 2.554 1.798 0 .82-.71 1.434-2.065 1.434-1.088 0-2.507-.441-2.507-2.08h-1.892c0 2.585 1.987 3.815 4.289 3.815zM77.516 53.945h1.892v-9.38h3.2v-1.656h-8.292v1.655h3.2v9.381zM82.46 53.945h1.75l.994-2.727h4.162l.978 2.727h1.86v-.63l-3.941-10.406h-1.86L82.46 53.315v.63zm3.312-4.304l1.529-4.21 1.498 4.21h-3.027zM93.942 53.945h5.077c1.955 0 3.153-1.025 3.153-3.058 0-1.609-.788-2.318-1.75-2.665.835-.426 1.324-1.12 1.324-2.35 0-1.986-1.214-2.963-3.153-2.963h-4.651v11.036zm1.892-1.655v-3.075h2.87c1.056 0 1.576.552 1.576 1.561 0 .993-.536 1.514-1.577 1.514h-2.87zm0-4.651v-3.075h2.444c1.04 0 1.56.536 1.56 1.53 0 .993-.52 1.545-1.56 1.545h-2.444zM104.381 53.945h7.174V52.29h-5.282v-9.381h-1.892v11.036zM113.296 53.945h7.095V52.29h-5.203V49.2h4.446v-1.577h-4.446v-3.059h5.187V42.91h-7.079v11.036zM128.003 53.945h1.892v-9.38h3.2v-1.656h-8.293v1.655h3.201v9.381zM138.857 52.447c-1.64 0-2.444-.961-2.444-2.144v-3.752c0-1.183.804-2.144 2.444-2.144 1.639 0 2.443.961 2.443 2.144v3.752c0 1.183-.804 2.145-2.443 2.145zm0 1.735c2.648 0 4.335-1.467 4.335-3.973v-3.564c0-2.507-1.687-3.973-4.335-3.973-2.649 0-4.336 1.467-4.336 3.973v3.564c0 2.506 1.687 3.973 4.336 3.973zM145.722 53.945h1.892v-4.698h1.403l2.996 4.698h1.86v-.63l-3.201-4.998 2.98-4.778v-.63h-1.75l-2.885 4.682h-1.403V42.91h-1.892v11.036zM155.607 53.945h7.094V52.29h-5.202V49.2h4.446v-1.577h-4.446v-3.059h5.187V42.91h-7.079v11.036zM164.906 53.945h1.892v-7.52l4.73 7.52h1.735V42.91h-1.892v7.52l-4.73-7.52h-1.735v11.036z" fill="#fff"></path></svg>
